<svg xmlns="http://www.w3.org/2000/svg"  viewBox="0 0 24 24" width="24px" height="24px"><path d="M 11.5 2 C 6.259214 2 2 6.2592178 2 11.5 C 2 16.740782 6.259214 21 11.5 21 C 16.740786 21 21 16.740782 21 11.5 C 21 6.2592178 16.740786 2 11.5 2 z M 11.5 3 C 16.200346 3 20 6.7996569 20 11.5 C 20 16.200343 16.200346 20 11.5 20 C 6.7996538 20 3 16.200343 3 11.5 C 3 6.7996569 6.7996538 3 11.5 3 z M 11.492188 6.9921875 A 0.50005 0.50005 0 0 0 11 7.5 L 11 11 L 7.5 11 A 0.50005 0.50005 0 1 0 7.5 12 L 11 12 L 11 15.5 A 0.50005 0.50005 0 1 0 12 15.5 L 12 12 L 15.5 12 A 0.50005 0.50005 0 1 0 15.5 11 L 12 11 L 12 7.5 A 0.50005 0.50005 0 0 0 11.492188 6.9921875 z"/></svg>